<svg xmlns="http://www.w3.org/2000/svg" width="32" height="32" viewBox="0 0 32 32">
    <g fill="none" fill-rule="evenodd">
        <path fill="#F3F3F3" stroke="#DA1E28" stroke-width="2" d="M1 1v30h30V8.414L23.586 1H1z"/>
        <path fill="#DA1E28" fill-rule="nonzero" d="M25.584 20.24c-.132.081-.507.131-.744.131-.775 0-1.725-.356-3.069-.931.519-.038.988-.056 1.413-.056.775 0 1 0 1.762.194.756.187.763.58.638.662zm-13.444.119c.3-.525.606-1.082.919-1.675a31.357 31.357 0 0 0 1.606-3.513c.719 1.306 1.612 2.413 2.656 3.3.131.113.269.219.419.331-2.131.425-3.975.938-5.6 1.557zm2.487-13.682c.425 0 .67 1.067.688 2.073.019 1-.213 1.7-.506 2.225-.244-.775-.357-1.987-.357-2.781 0 0-.018-1.517.175-1.517zm-8.337 19.2c.244-.656 1.194-1.956 2.6-3.112.087-.069.306-.275.506-.463-1.469 2.35-2.456 3.282-3.106 3.576zm19.7-7.018c-.425-.419-1.375-.638-2.813-.657-.975-.012-2.143.075-3.38.244-.55-.319-1.12-.662-1.57-1.081-1.2-1.125-2.2-2.681-2.825-4.394.038-.162.075-.3.107-.444 0 0 .675-3.843.493-5.143a1.39 1.39 0 0 0-.087-.369l-.056-.156c-.182-.423-.544-.873-1.113-.848L14.415 6h-.006c-.632 0-1.15.323-1.282.803-.412 1.518.013 3.78.782 6.712l-.2.481c-.55 1.338-1.238 2.688-1.844 3.875l-.081.157a65.056 65.056 0 0 1-1.744 3.212l-.544.288c-.037.024-.969.512-1.187.643-1.85 1.107-3.08 2.363-3.284 3.363-.065.312-.016.719.313.912l.525.263c.227.112.47.169.714.169 1.32 0 2.85-1.638 4.957-5.32 2.437-.793 5.212-1.456 7.643-1.818 1.85 1.044 4.125 1.769 5.563 1.769.256 0 .475-.025.656-.075a1.08 1.08 0 0 0 .65-.444c.275-.419.338-.994.256-1.587-.018-.175-.162-.394-.312-.544z"/>
    </g>
</svg>
