<svg xmlns="http://www.w3.org/2000/svg" xmlns:xlink="http://www.w3.org/1999/xlink" width="100%" height="100%" version="1.1" viewBox="0 0 640 640"><title>Artboard</title><desc>Created with Sketch.</desc><g id="landing-color-grid_svg__Page-1" fill="none" fill-rule="evenodd" stroke="none" stroke-width="1"><g id="landing-color-grid_svg__Artboard"><g id="landing-color-grid_svg__Color-Grid"><rect id="landing-color-grid_svg__Rectangle-2-Copy-78" width="162" height="162" x="0" y="0" fill="#EE538B"/><rect id="landing-color-grid_svg__Rectangle-2-Copy-79" width="162" height="162" x="0" y="320" fill="#418CFF"/><rect id="landing-color-grid_svg__Rectangle-2-Copy-80" width="162" height="162" x="0" y="480" fill="#00BAB6"/><rect id="landing-color-grid_svg__Rectangle-2-Copy-81" width="162" height="162" x="0" y="160" fill="#A970FF"/><rect id="landing-color-grid_svg__Rectangle-2-Copy-82" width="162" height="162" x="160" y="0" fill="#D7306D"/><rect id="landing-color-grid_svg__Rectangle-2-Copy-83" width="162" height="162" x="160" y="320" fill="#0F6FFF"/><rect id="landing-color-grid_svg__Rectangle-2-Copy-84" width="162" height="162" x="160" y="480" fill="#009E9A"/><rect id="landing-color-grid_svg__Rectangle-2-Copy-85" width="162" height="162" x="160" y="160" fill="#924CFC"/><rect id="landing-color-grid_svg__Rectangle-2-Copy-86" width="162" height="162" x="320" y="0" fill="#A11950"/><rect id="landing-color-grid_svg__Rectangle-2-Copy-87" width="162" height="162" x="320" y="320" fill="#054ADA"/><rect id="landing-color-grid_svg__Rectangle-2-Copy-88" width="162" height="162" x="320" y="480" fill="#008381"/><rect id="landing-color-grid_svg__Rectangle-2-Copy-89" width="162" height="162" x="320" y="160" fill="#6E32C9"/><rect id="landing-color-grid_svg__Rectangle-2-Copy-90" width="162" height="162" x="480" y="0" fill="#760A3A"/><rect id="landing-color-grid_svg__Rectangle-2-Copy-91" width="162" height="162" x="480" y="320" fill="#0530AD"/><rect id="landing-color-grid_svg__Rectangle-2-Copy-92" width="162" height="162" x="480" y="480" fill="#006161"/><rect id="landing-color-grid_svg__Rectangle-2-Copy-93" width="162" height="162" x="480" y="160" fill="#4F2196"/></g></g></g></svg>