<?xml version="1.0" encoding="UTF-8"?><svg width="100%" height="100%" viewBox="0 0 640 640" version="1.1" xmlns="http://www.w3.org/2000/svg" xmlns:xlink="http://www.w3.org/1999/xlink"><!--Generator: Sketch 48.2 (47327) - http://www.bohemiancoding.com/sketch--><title>Artboard</title><desc>Created with Sketch.</desc><defs/><g id="landing-color-grid_svg__Page-1" stroke="none" stroke-width="1" fill="none" fill-rule="evenodd"><g id="landing-color-grid_svg__Artboard"><g id="landing-color-grid_svg__Color-Grid"><rect id="landing-color-grid_svg__Rectangle-2-Copy-78" fill="#EE538B" x="0" y="0" width="162" height="162"/><rect id="landing-color-grid_svg__Rectangle-2-Copy-79" fill="#418CFF" x="0" y="320" width="162" height="162"/><rect id="landing-color-grid_svg__Rectangle-2-Copy-80" fill="#00BAB6" x="0" y="480" width="162" height="162"/><rect id="landing-color-grid_svg__Rectangle-2-Copy-81" fill="#A970FF" x="0" y="160" width="162" height="162"/><rect id="landing-color-grid_svg__Rectangle-2-Copy-82" fill="#D7306D" x="160" y="0" width="162" height="162"/><rect id="landing-color-grid_svg__Rectangle-2-Copy-83" fill="#0F6FFF" x="160" y="320" width="162" height="162"/><rect id="landing-color-grid_svg__Rectangle-2-Copy-84" fill="#009E9A" x="160" y="480" width="162" height="162"/><rect id="landing-color-grid_svg__Rectangle-2-Copy-85" fill="#924CFC" x="160" y="160" width="162" height="162"/><rect id="landing-color-grid_svg__Rectangle-2-Copy-86" fill="#A11950" x="320" y="0" width="162" height="162"/><rect id="landing-color-grid_svg__Rectangle-2-Copy-87" fill="#054ADA" x="320" y="320" width="162" height="162"/><rect id="landing-color-grid_svg__Rectangle-2-Copy-88" fill="#008381" x="320" y="480" width="162" height="162"/><rect id="landing-color-grid_svg__Rectangle-2-Copy-89" fill="#6E32C9" x="320" y="160" width="162" height="162"/><rect id="landing-color-grid_svg__Rectangle-2-Copy-90" fill="#760A3A" x="480" y="0" width="162" height="162"/><rect id="landing-color-grid_svg__Rectangle-2-Copy-91" fill="#0530AD" x="480" y="320" width="162" height="162"/><rect id="landing-color-grid_svg__Rectangle-2-Copy-92" fill="#006161" x="480" y="480" width="162" height="162"/><rect id="landing-color-grid_svg__Rectangle-2-Copy-93" fill="#4F2196" x="480" y="160" width="162" height="162"/></g></g></g></svg>
