<svg viewBox="0 0 640 640"><g fill="none" fill-rule="evenodd"><path fill="#EE538B" d="M0 0h162v162H0z"/><path fill="#418CFF" d="M0 320h162v162H0z"/><path fill="#00BAB6" d="M0 480h162v162H0z"/><path fill="#A970FF" d="M0 160h162v162H0z"/><path fill="#D7306D" d="M160 0h162v162H160z"/><path fill="#0F6FFF" d="M160 320h162v162H160z"/><path fill="#009E9A" d="M160 480h162v162H160z"/><path fill="#924CFC" d="M160 160h162v162H160z"/><path fill="#A11950" d="M320 0h162v162H320z"/><path fill="#054ADA" d="M320 320h162v162H320z"/><path fill="#008381" d="M320 480h162v162H320z"/><path fill="#6E32C9" d="M320 160h162v162H320z"/><path fill="#760A3A" d="M480 0h162v162H480z"/><path fill="#0530AD" d="M480 320h162v162H480z"/><path fill="#006161" d="M480 480h162v162H480z"/><path fill="#4F2196" d="M480 160h162v162H480z"/></g></svg>