<?xml version="1.0" encoding="UTF-8"?>
<svg width="21px" height="52px" viewBox="0 0 21 52" version="1.1" xmlns="http://www.w3.org/2000/svg" xmlns:xlink="http://www.w3.org/1999/xlink">
    <!-- Generator: Sketch 51.3 (57544) - http://www.bohemiancoding.com/sketch -->
    <title>Group</title>
    <desc>Created with Sketch.</desc>
    <defs></defs>
    <g id="Desktop" stroke="none" stroke-width="1" fill="none" fill-rule="evenodd">
        <g id="Icons-Copy-2" transform="translate(-356.000000, -840.000000)">
            <g id="Group" transform="translate(356.000000, 840.000000)">
                <g id="Group-44">
                    <path d="M10.4094946,13.114652 C11.5441793,13.114652 12.4638424,12.1917093 12.4638424,11.052978 C12.4638424,9.9142467 11.5441793,8.99130396 10.4094946,8.99130396 C9.27480978,8.99130396 8.35514674,9.9142467 8.35514674,11.052978 C8.35514674,12.1917093 9.27480978,13.114652 10.4094946,13.114652" id="Fill-1" fill="#231F20"></path>
                    <path d="M10.4094946,6.41421145 C12.9623641,6.41421145 15.0317772,8.49100441 15.0317772,11.052978 C15.0317772,13.6149515 12.9623641,15.6917445 10.4094946,15.6917445 C7.85639674,15.6917445 5.78721196,13.6149515 5.78721196,11.052978 C5.78721196,8.49100441 7.85639674,6.41421145 10.4094946,6.41421145 M10.4094946,16.7225815 C14.104125,16.7225815 17.2737554,14.3844141 18.6268859,11.052978 C17.2737554,7.72154185 14.104125,5.38337445 10.4094946,5.38337445 C6.71463587,5.38337445 3.54500543,7.72154185 2.19210326,11.052978 C3.54500543,14.3844141 6.71463587,16.7225815 10.4094946,16.7225815" id="Fill-3" fill="#231F20"></path>
                    <g id="Group-7" transform="translate(2.510870, 0.128969)">
                        <polygon id="Clip-6" points="0.194820652 0.100334802 15.6024293 0.100334802 15.6024293 6.28524229 0.194820652 6.28524229"></polygon>
                        <path d="M7.898625,2.67731278 C10.9945272,2.67731278 13.7621902,4.08062555 15.6024293,6.28524229 L15.6024293,4.73898678 C14.0561902,1.96488987 11.1855815,0.100220264 7.898625,0.100220264 C4.61144022,0.100220264 1.74083152,1.96488987 0.194820652,4.73898678 L0.194820652,6.28524229 C2.03483152,4.08062555 4.80272283,2.67731278 7.898625,2.67731278" id="Fill-5" fill="#231F20"></path>
                    </g>
                    <polygon id="Fill-8" fill="#231F20" points="10.4001359 51.8998943 10.7699185 50.8369868 10.0337772 50.8369868"></polygon>
                    <polygon id="Fill-10" fill="#231F20" points="9.69574565 49.8708863 11.1079957 49.8708863 11.4796043 48.8079789 9.3239087 48.8079789"></polygon>
                    <polygon id="Fill-12" fill="#231F20" points="8.9859913 47.8417639 11.8177957 47.8417639 12.1896326 46.7788564 8.61415435 46.7788564"></polygon>
                    <polygon id="Fill-14" fill="#231F20" points="8.2760087 45.812733 12.5275957 45.812733 12.8994326 44.7498256 7.90417174 44.7498256"></polygon>
                    <polygon id="Fill-16" fill="#231F20" points="9.40103804 40.6917868 4.04740761 40.6917868 4.04740761 41.7546943 9.76922283 41.7546943"></polygon>
                    <polygon id="Fill-18" fill="#231F20" points="11.7373793 39.7254802 18.874412 39.7254802 18.874412 38.6625727 12.1055641 38.6625727"></polygon>
                    <polygon id="Fill-20" fill="#231F20" points="12.4404457 37.6964722 18.8744348 37.6964722 18.8744348 36.6335648 12.8086304 36.6335648"></polygon>
                    <polygon id="Clip-23" points="0 51.8998943 20.8002717 51.8998943 20.8002717 0.229303965 0 0.229303965"></polygon>
                    <polygon id="Fill-22" fill="#231F20" points="1.92926087 51.8998943 7.22445652 51.8998943 7.22445652 50.8369868 1.92926087 50.8369868"></polygon>
                    <polygon id="Fill-24" fill="#231F20" points="1.92926087 49.870978 7.22445652 49.870978 7.22445652 48.8080705 1.92926087 48.8080705"></polygon>
                    <polygon id="Fill-25" fill="#231F20" points="4.04729348 47.8418326 7.22445652 47.8418326 7.22445652 46.7789251 4.04729348 46.7789251"></polygon>
                    <polygon id="Fill-26" fill="#231F20" points="4.04729348 45.8126872 7.22445652 45.8126872 7.22445652 44.7497797 4.04729348 44.7497797"></polygon>
                    <polygon id="Fill-27" fill="#231F20" points="4.04729348 43.7835419 7.22445652 43.7835419 7.22445652 42.7206344 4.04729348 42.7206344"></polygon>
                    <polygon id="Fill-28" fill="#231F20" points="16.7562196 40.6917868 11.4025891 40.6917868 11.0344043 41.7546943 16.7562196 41.7546943"></polygon>
                    <polygon id="Fill-29" fill="#231F20" points="13.5790793 43.7836106 16.7562424 43.7836106 16.7562424 42.7207031 13.5790793 42.7207031 10.6995685 42.7207031 10.4019163 43.579963 10.1040359 42.7207031 7.224525 42.7207031 7.224525 42.8068352 7.56623152 43.7836106 13.2373728 43.7836106 13.5790793 42.8070643"></polygon>
                    <polygon id="Fill-30" fill="#231F20" points="13.5790109 45.8126872 16.7561739 45.8126872 16.7561739 44.7497797 13.5790109 44.7497797"></polygon>
                    <polygon id="Fill-31" fill="#231F20" points="13.5790109 47.8418326 16.7561739 47.8418326 16.7561739 46.7789251 13.5790109 46.7789251"></polygon>
                    <polygon id="Fill-32" fill="#231F20" points="13.5790109 49.870978 18.8742065 49.870978 18.8742065 48.8080705 13.5790109 48.8080705"></polygon>
                    <polygon id="Fill-33" fill="#231F20" points="13.5790109 51.8998943 18.8742065 51.8998943 18.8742065 50.8369868 13.5790109 50.8369868"></polygon>
                    <polygon id="Fill-34" fill="#231F20" points="1.9292837 39.7254802 9.0663163 39.7254802 8.69790326 38.6625727 1.9292837 38.6625727"></polygon>
                    <polygon id="Fill-35" fill="#231F20" points="7.99492826 36.6336335 1.92935217 36.6336335 1.92935217 37.696541 8.36311304 37.696541"></polygon>
                    <path d="M10.0091478,20.4564564 C10.0091478,19.6040687 9.32071304,18.9131789 8.47135435,18.9131789 C7.62199565,18.9131789 6.93333261,19.6040687 6.93333261,20.4564564 C6.93333261,21.3088441 7.62199565,21.9997339 8.47135435,21.9997339 C9.32071304,21.9997339 10.0091478,21.3088441 10.0091478,20.4564564" id="Fill-36" fill="#231F20"></path>
                    <path d="M12.3289859,18.9131101 C11.4793989,18.9131101 10.7911924,19.604 10.7911924,20.4563877 C10.7911924,21.3087753 11.4793989,21.9998943 12.3289859,21.9998943 C13.1783446,21.9998943 13.8667793,21.3087753 13.8667793,20.4563877 C13.8667793,19.604 13.1783446,18.9131101 12.3289859,18.9131101" id="Fill-37" fill="#231F20"></path>
                    <path d="M5.29836848,29.680867 L7.06191196,24.0614308 L1.83177065,26.3817304 C0.772183696,26.8586643 -2.2826087e-05,27.7012018 -2.2826087e-05,28.9615718 C-2.2826087e-05,30.4496423 1.21364022,31.6639683 2.69642283,31.6639683 C4.12054239,31.6639683 4.96373804,30.6819242 5.29836848,29.680867" id="Fill-38" fill="#231F20"></path>
                    <path d="M18.968387,26.3816388 L13.7384739,24.0615683 L15.5017891,29.6807753 C15.8364196,30.6818326 16.6841804,31.6638767 18.1128652,31.6638767 C18.1137783,31.6638767 18.1146913,31.6638767 18.1158326,31.6638767 C19.598387,31.6638767 20.8001804,30.4495507 20.8001804,28.9617093 C20.8001804,27.7013392 20.0282022,26.8588018 18.968387,26.3816388" id="Fill-39" fill="#231F20"></path>
                    <path d="M10.4001359,22.6498943 C9.06207065,22.6498943 7.91505978,23.4420352 7.38275543,24.5828282 L13.4245924,24.5828282 C12.8916033,23.4434097 11.7370598,22.6498943 10.4001359,22.6498943" id="Fill-40" fill="#231F20"></path>
                    <polygon id="Fill-41" fill="#231F20" points="7.06182065 26.1289692 7.06182065 27.9329339 13.7379946 27.9329339 13.7384511 26.1289692"></polygon>
                    <polygon id="Fill-42" fill="#231F20" points="13.7384511 29.4791894 7.06182065 29.4791894 7.06182065 31.2831542 13.7379946 31.2831542"></polygon>
                    <path d="M13.4245924,32.8294097 L7.38275543,32.8294097 C7.91574457,33.9688282 9.06321196,34.7623436 10.4001359,34.7623436 C11.7382011,34.7623436 12.8920598,33.9699736 13.4245924,32.8294097" id="Fill-43" fill="#231F20"></path>
                </g>
            </g>
        </g>
    </g>
</svg>