<svg viewBox="0 0 21 52"><g fill="none" fill-rule="evenodd"><path fill="#231F20" d="M10.41 13.115a2.058 2.058 0 002.054-2.062c0-1.139-.92-2.062-2.055-2.062a2.058 2.058 0 00-2.054 2.062c0 1.139.92 2.062 2.054 2.062"/><path fill="#231F20" d="M10.41 6.414c2.552 0 4.622 2.077 4.622 4.639 0 2.562-2.07 4.639-4.623 4.639-2.553 0-4.622-2.077-4.622-4.639 0-2.562 2.07-4.639 4.622-4.639m0 10.309c3.695 0 6.865-2.339 8.218-5.67-1.353-3.331-4.523-5.67-8.218-5.67-3.694 0-6.864 2.339-8.217 5.67 1.353 3.331 4.523 5.67 8.217 5.67"/><path d="M2.705.229h15.407v6.185H2.705z"/><path fill="#231F20" d="M10.409 2.806a10.01 10.01 0 017.703 3.608V4.869C16.566 2.094 13.696.229 10.41.229c-3.29 0-6.16 1.865-7.705 4.64v1.546a10.009 10.009 0 017.704-3.608M10.4 51.9l.37-1.063h-.736zm-.704-2.029h1.412l.372-1.063H9.324zm-.71-2.029h2.832l.372-1.063H8.614zm-.71-2.029h4.252l.371-1.063H7.904zm1.125-5.121H4.047v1.063h5.722zm2.336-.967h7.137v-1.062h-6.768zm.703-2.029h6.434v-1.062h-6.065z"/><path d="M0 51.9h20.8V.229H0z"/><path fill="#231F20" d="M1.929 51.9h5.295v-1.063H1.929zm0-2.029h5.295v-1.063H1.929zm2.118-2.029h3.177v-1.063H4.047zm0-2.029h3.177V44.75H4.047zm0-2.029h3.177v-1.063H4.047zm12.709-3.092h-5.353l-.369 1.063h5.722zm-3.177 3.092h3.177v-1.063H10.7l-.298.859-.298-.859H7.225v.086l.341.977h5.671l.342-.977zm0 2.029h3.177V44.75h-3.177zm0 2.029h3.177v-1.063h-3.177zm0 2.029h5.295v-1.063h-5.295zm0 2.029h5.295v-1.063h-5.295zM1.929 39.725h7.137l-.368-1.062H1.929zm6.066-3.091H1.929v1.063h6.434zm2.015-16.178a1.54 1.54 0 00-1.539-1.543 1.54 1.54 0 00-1.538 1.543A1.54 1.54 0 008.471 22a1.54 1.54 0 001.538-1.544m2.32-1.543a1.54 1.54 0 00-1.538 1.543A1.54 1.54 0 0012.33 22a1.54 1.54 0 001.538-1.544 1.54 1.54 0 00-1.538-1.543M5.3 29.681l1.763-5.62-5.23 2.32C.772 26.86 0 27.702 0 28.962a2.706 2.706 0 002.696 2.703c1.425 0 2.268-.982 2.602-1.983m13.67-3.3l-5.23-2.32 1.764 5.62c.334 1 1.182 1.983 2.61 1.983h.004a2.696 2.696 0 002.684-2.702c0-1.26-.772-2.103-1.832-2.58M10.4 22.65a3.329 3.329 0 00-3.017 1.933h6.042A3.344 3.344 0 0010.4 22.65m-3.338 3.479v1.804h6.676v-1.804zm6.676 3.35H7.062v1.804h6.676zm-.313 3.351H7.383a3.333 3.333 0 003.017 1.932 3.34 3.34 0 003.025-1.933"/></g></svg>