<svg xmlns="http://www.w3.org/2000/svg" xmlns:xlink="http://www.w3.org/1999/xlink" width="21" height="52" version="1.1" viewBox="0 0 21 52"><title>Group</title><desc>Created with Sketch.</desc><g id="Desktop" fill="none" fill-rule="evenodd" stroke="none" stroke-width="1"><g id="Icons-Copy-2" transform="translate(-356.000000, -840.000000)"><g id="Group" transform="translate(356.000000, 840.000000)"><g id="Group-44"><path id="Fill-1" fill="#231F20" d="M10.4094946,13.114652 C11.5441793,13.114652 12.4638424,12.1917093 12.4638424,11.052978 C12.4638424,9.9142467 11.5441793,8.99130396 10.4094946,8.99130396 C9.27480978,8.99130396 8.35514674,9.9142467 8.35514674,11.052978 C8.35514674,12.1917093 9.27480978,13.114652 10.4094946,13.114652"/><path id="Fill-3" fill="#231F20" d="M10.4094946,6.41421145 C12.9623641,6.41421145 15.0317772,8.49100441 15.0317772,11.052978 C15.0317772,13.6149515 12.9623641,15.6917445 10.4094946,15.6917445 C7.85639674,15.6917445 5.78721196,13.6149515 5.78721196,11.052978 C5.78721196,8.49100441 7.85639674,6.41421145 10.4094946,6.41421145 M10.4094946,16.7225815 C14.104125,16.7225815 17.2737554,14.3844141 18.6268859,11.052978 C17.2737554,7.72154185 14.104125,5.38337445 10.4094946,5.38337445 C6.71463587,5.38337445 3.54500543,7.72154185 2.19210326,11.052978 C3.54500543,14.3844141 6.71463587,16.7225815 10.4094946,16.7225815"/><g id="Group-7" transform="translate(2.510870, 0.128969)"><polygon id="Clip-6" points=".195 .1 15.602 .1 15.602 6.285 .195 6.285"/><path id="Fill-5" fill="#231F20" d="M7.898625,2.67731278 C10.9945272,2.67731278 13.7621902,4.08062555 15.6024293,6.28524229 L15.6024293,4.73898678 C14.0561902,1.96488987 11.1855815,0.100220264 7.898625,0.100220264 C4.61144022,0.100220264 1.74083152,1.96488987 0.194820652,4.73898678 L0.194820652,6.28524229 C2.03483152,4.08062555 4.80272283,2.67731278 7.898625,2.67731278"/></g><polygon id="Fill-8" fill="#231F20" points="10.4 51.9 10.77 50.837 10.034 50.837"/><polygon id="Fill-10" fill="#231F20" points="9.696 49.871 11.108 49.871 11.48 48.808 9.324 48.808"/><polygon id="Fill-12" fill="#231F20" points="8.986 47.842 11.818 47.842 12.19 46.779 8.614 46.779"/><polygon id="Fill-14" fill="#231F20" points="8.276 45.813 12.528 45.813 12.899 44.75 7.904 44.75"/><polygon id="Fill-16" fill="#231F20" points="9.401 40.692 4.047 40.692 4.047 41.755 9.769 41.755"/><polygon id="Fill-18" fill="#231F20" points="11.737 39.725 18.874 39.725 18.874 38.663 12.106 38.663"/><polygon id="Fill-20" fill="#231F20" points="12.44 37.696 18.874 37.696 18.874 36.634 12.809 36.634"/><polygon id="Clip-23" points="0 51.9 20.8 51.9 20.8 .229 0 .229"/><polygon id="Fill-22" fill="#231F20" points="1.929 51.9 7.224 51.9 7.224 50.837 1.929 50.837"/><polygon id="Fill-24" fill="#231F20" points="1.929 49.871 7.224 49.871 7.224 48.808 1.929 48.808"/><polygon id="Fill-25" fill="#231F20" points="4.047 47.842 7.224 47.842 7.224 46.779 4.047 46.779"/><polygon id="Fill-26" fill="#231F20" points="4.047 45.813 7.224 45.813 7.224 44.75 4.047 44.75"/><polygon id="Fill-27" fill="#231F20" points="4.047 43.784 7.224 43.784 7.224 42.721 4.047 42.721"/><polygon id="Fill-28" fill="#231F20" points="16.756 40.692 11.403 40.692 11.034 41.755 16.756 41.755"/><polygon id="Fill-29" fill="#231F20" points="13.579 43.784 16.756 43.784 16.756 42.721 13.579 42.721 10.7 42.721 10.402 43.58 10.104 42.721 7.225 42.721 7.225 42.807 7.566 43.784 13.237 43.784 13.579 42.807"/><polygon id="Fill-30" fill="#231F20" points="13.579 45.813 16.756 45.813 16.756 44.75 13.579 44.75"/><polygon id="Fill-31" fill="#231F20" points="13.579 47.842 16.756 47.842 16.756 46.779 13.579 46.779"/><polygon id="Fill-32" fill="#231F20" points="13.579 49.871 18.874 49.871 18.874 48.808 13.579 48.808"/><polygon id="Fill-33" fill="#231F20" points="13.579 51.9 18.874 51.9 18.874 50.837 13.579 50.837"/><polygon id="Fill-34" fill="#231F20" points="1.929 39.725 9.066 39.725 8.698 38.663 1.929 38.663"/><polygon id="Fill-35" fill="#231F20" points="7.995 36.634 1.929 36.634 1.929 37.697 8.363 37.697"/><path id="Fill-36" fill="#231F20" d="M10.0091478,20.4564564 C10.0091478,19.6040687 9.32071304,18.9131789 8.47135435,18.9131789 C7.62199565,18.9131789 6.93333261,19.6040687 6.93333261,20.4564564 C6.93333261,21.3088441 7.62199565,21.9997339 8.47135435,21.9997339 C9.32071304,21.9997339 10.0091478,21.3088441 10.0091478,20.4564564"/><path id="Fill-37" fill="#231F20" d="M12.3289859,18.9131101 C11.4793989,18.9131101 10.7911924,19.604 10.7911924,20.4563877 C10.7911924,21.3087753 11.4793989,21.9998943 12.3289859,21.9998943 C13.1783446,21.9998943 13.8667793,21.3087753 13.8667793,20.4563877 C13.8667793,19.604 13.1783446,18.9131101 12.3289859,18.9131101"/><path id="Fill-38" fill="#231F20" d="M5.29836848,29.680867 L7.06191196,24.0614308 L1.83177065,26.3817304 C0.772183696,26.8586643 -2.2826087e-05,27.7012018 -2.2826087e-05,28.9615718 C-2.2826087e-05,30.4496423 1.21364022,31.6639683 2.69642283,31.6639683 C4.12054239,31.6639683 4.96373804,30.6819242 5.29836848,29.680867"/><path id="Fill-39" fill="#231F20" d="M18.968387,26.3816388 L13.7384739,24.0615683 L15.5017891,29.6807753 C15.8364196,30.6818326 16.6841804,31.6638767 18.1128652,31.6638767 C18.1137783,31.6638767 18.1146913,31.6638767 18.1158326,31.6638767 C19.598387,31.6638767 20.8001804,30.4495507 20.8001804,28.9617093 C20.8001804,27.7013392 20.0282022,26.8588018 18.968387,26.3816388"/><path id="Fill-40" fill="#231F20" d="M10.4001359,22.6498943 C9.06207065,22.6498943 7.91505978,23.4420352 7.38275543,24.5828282 L13.4245924,24.5828282 C12.8916033,23.4434097 11.7370598,22.6498943 10.4001359,22.6498943"/><polygon id="Fill-41" fill="#231F20" points="7.062 26.129 7.062 27.933 13.738 27.933 13.738 26.129"/><polygon id="Fill-42" fill="#231F20" points="13.738 29.479 7.062 29.479 7.062 31.283 13.738 31.283"/><path id="Fill-43" fill="#231F20" d="M13.4245924,32.8294097 L7.38275543,32.8294097 C7.91574457,33.9688282 9.06321196,34.7623436 10.4001359,34.7623436 C11.7382011,34.7623436 12.8920598,33.9699736 13.4245924,32.8294097"/></g></g></g></g></svg>