<svg viewBox="0 0 512 512"><path fill="#878d96" d="M256 160a96 96 0 00-96 96v128a96 96 0 00192 0V256a96 96 0 00-96-96zm-68 125.92h136v68H188zM256 452a68.33 68.33 0 01-68-68v-2.08h136V384a68.33 68.33 0 01-68 68zm68-194.08H188V256a68 68 0 01136 0zm166.56 49.44L384 208v145.6a64 64 0 00128 0 61.27 61.27 0 00-21.44-46.24zM448 389.6a36 36 0 01-36-36V272l59.52 55.52A32.81 32.81 0 01483.2 352a36 36 0 01-34.36 37.57zm-448-36a64 64 0 00128 0V208L21.44 307.36A62.07 62.07 0 000 353.6zm39.68-25L100 272v81.6a36 36 0 01-72 0 32.8 32.8 0 0111.68-24.96zM240 88a56 56 0 10-56 56 56 56 0 0056-56zm-84 0a28 28 0 1128 28 28.32 28.32 0 01-28-28zm172-56a56 56 0 1056 56 56 56 0 00-56-56zm0 84a28 28 0 1128-28 28.32 28.32 0 01-28 28z"/></svg>