<?xml version="1.0" encoding="utf-8"?>
<!-- Generator: Adobe Illustrator 22.1.0, SVG Export Plug-In . SVG Version: 6.00 Build 0)  -->
<svg version="1.1" id="Layer_1" xmlns="http://www.w3.org/2000/svg" xmlns:xlink="http://www.w3.org/1999/xlink" x="0px" y="0px"
	 viewBox="0 0 32 32" style="enable-background:new 0 0 32 32;" xml:space="preserve">
<style type="text/css">
	.st0{fill:none;}
</style>
<g>
	<rect class="st0" width="32" height="32"/>
	<g>
		<g>
			<g>
				<path d="M28,17h-2V7.6l-7.5-4.2l-8,4.5l-1-1.7L18,1.3c0.3-0.2,0.7-0.2,1,0l8.5,4.8C27.8,6.3,28,6.6,28,7V17z"/>
			</g>
		</g>
		<g>
			<g>
				<path d="M13.5,30.8c-0.2,0-0.3,0-0.5-0.1l-8.5-4.8C4.2,25.7,4,25.4,4,25V15c0-0.4,0.2-0.7,0.5-0.9L13,9.3c0.3-0.2,0.7-0.2,1,0
					l8.5,4.8c0.3,0.2,0.5,0.5,0.5,0.9v10c0,0.4-0.2,0.7-0.5,0.9L14,30.7C13.8,30.8,13.7,30.8,13.5,30.8z M6,24.4l7.5,4.2l7.5-4.2
					v-8.8l-7.5-4.2L6,15.6V24.4z"/>
			</g>
		</g>
	</g>
</g>
</svg>
