<?xml version="1.0" encoding="utf-8"?>
<!-- Generator: Adobe Illustrator 23.0.4, SVG Export Plug-In . SVG Version: 6.00 Build 0)  -->
<svg version="1.1" id="Layer_1" xmlns="http://www.w3.org/2000/svg" xmlns:xlink="http://www.w3.org/1999/xlink" x="0px" y="0px"
	 viewBox="0 0 210 210" style="enable-background:new 0 0 210 210;" xml:space="preserve">
<style type="text/css">
	.st0{fill:#CB3837;}
	.st1{fill:#FFFFFF;}
</style>
<g>
	<path class="st0" d="M0,128.3h210v70H105V210H58.3v-11.7H0V128.3z M11.7,186.7H35v-35h11.7v35h11.7V140H11.7V186.7z M70,140v58.3
		h23.3v-11.7h23.3V140H70z M93.3,151.7H105V175H93.3V151.7z M128.3,140v46.7h23.3v-35h11.7v35H175v-35h11.7v35h11.7V140H128.3z"/>
	<polygon class="st1" points="11.7,186.7 35,186.7 35,151.7 46.7,151.7 46.7,186.7 58.3,186.7 58.3,140 11.7,140 	"/>
	<path class="st1" d="M70,140v58.3h23.3v-11.7h23.3V140H70z M105,175H93.3v-23.3H105V175z"/>
	<polygon class="st1" points="128.3,140 128.3,186.7 151.7,186.7 151.7,151.7 163.3,151.7 163.3,186.7 175,186.7 175,151.7 
		186.7,151.7 186.7,186.7 198.3,186.7 198.3,140 	"/>
</g>
</svg>
